<?xml version="1.0" encoding="UTF-8" standalone="no"?>
<!-- Created with Inkscape (http://www.inkscape.org/) -->

<svg
   width="22"
   height="22"
   viewBox="0 0 22 22"
   version="1.1"
   id="svg1"
   sodipodi:docname="break-end.svg"
   inkscape:version="1.3 (0e150ed6c4, 2023-07-21)"
   xmlns:inkscape="http://www.inkscape.org/namespaces/inkscape"
   xmlns:sodipodi="http://sodipodi.sourceforge.net/DTD/sodipodi-0.dtd"
   xmlns="http://www.w3.org/2000/svg"
   xmlns:svg="http://www.w3.org/2000/svg">
  <sodipodi:namedview
     id="namedview1"
     pagecolor="#ffffff"
     bordercolor="#000000"
     borderopacity="0.25"
     inkscape:showpageshadow="2"
     inkscape:pageopacity="0.0"
     inkscape:pagecheckerboard="0"
     inkscape:deskcolor="#d1d1d1"
     inkscape:document-units="px"
     inkscape:zoom="25.09375"
     inkscape:cx="16"
     inkscape:cy="16"
     inkscape:window-width="1920"
     inkscape:window-height="1007"
     inkscape:window-x="0"
     inkscape:window-y="0"
     inkscape:window-maximized="1"
     inkscape:current-layer="layer1" />
  <defs
     id="defs1" />
  <g
     inkscape:label="Ebene 1"
     inkscape:groupmode="layer"
     id="layer1">
    <path
       opacity="0.7"
       d="m 2,7.3329972 v 5.9997558 c 0,2.719384 1.5149314,4.49982 4.4998207,4.49982 H 3.4999348 V 19.3325 H 15.499446 V 17.832573 H 12.49956 c 2.357901,0 3.760354,-1.09046 4.49982,-2.999878 h 1.499936 c 1.499934,0 1.499934,-0.0041 1.499934,-1.640934 v -1.640934 c 0,-2.7268865 0,-2.719384 -1.499934,-2.719384 H 16.99938 V 7.3315 Z M 3.4999348,8.8329319 H 15.499446 v 4.4998211 c 0,2.2664 -2.006925,2.999877 -4.499821,2.999877 H 7.9997555 c -2.4928961,0 -4.4998207,-0.733477 -4.4998207,-2.999877 z M 16.99938,10.332875 h 1.499936 v 2.999878 H 16.99938 Z"
       id="path7"
       style="stroke-width:1.49994"
       sodipodi:nodetypes="cscccccccsssscccccsssscccccc" />
  </g>
</svg>
