<?xml version="1.0" encoding="UTF-8" standalone="no"?>
<!-- Created with Inkscape (http://www.inkscape.org/) -->

<svg
   width="22"
   height="22"
   viewBox="0 0 22 22"
   version="1.1"
   id="svg1"
   inkscape:version="1.3 (0e150ed6c4, 2023-07-21)"
   sodipodi:docname="break.svg"
   xmlns:inkscape="http://www.inkscape.org/namespaces/inkscape"
   xmlns:sodipodi="http://sodipodi.sourceforge.net/DTD/sodipodi-0.dtd"
   xmlns="http://www.w3.org/2000/svg"
   xmlns:svg="http://www.w3.org/2000/svg">
  <sodipodi:namedview
     id="namedview1"
     pagecolor="#ffffff"
     bordercolor="#000000"
     borderopacity="0.25"
     inkscape:showpageshadow="2"
     inkscape:pageopacity="0.0"
     inkscape:pagecheckerboard="0"
     inkscape:deskcolor="#d1d1d1"
     inkscape:document-units="px"
     inkscape:zoom="25.09375"
     inkscape:cx="16"
     inkscape:cy="16"
     inkscape:window-width="1920"
     inkscape:window-height="1007"
     inkscape:window-x="0"
     inkscape:window-y="0"
     inkscape:window-maximized="1"
     inkscape:current-layer="layer1" />
  <defs
     id="defs1" />
  <g
     inkscape:label="Ebene 1"
     inkscape:groupmode="layer"
     id="layer1">
    <path
       opacity="0.7"
       d="M 9.5000027,2 V 6.5000082 H 11 V 2 Z M 6.5000082,3.5000055 V 6.5000082 H 8.0000055 V 3.5000055 Z m 5.9999888,0 v 3.0000027 h 1.500006 V 3.5000055 Z M 3.4999973,5.0000027 V 6.5000082 H 4.9999945 V 5.0000027 Z M 2,7.9999973 v 6.0000057 c 0,2.719497 1.5149945,4.500008 4.5000082,4.500008 H 3.4999973 V 20 H 15.500008 v -1.499989 h -3.000011 c 2.358,0 3.760511,-1.090506 4.500008,-3.000003 h 1.499998 C 20,15.500008 20,15.495917 20,13.859005 V 12.218003 C 20,9.4910027 20,9.4985055 18.500003,9.4985055 H 17.000005 V 7.9985 Z M 3.4999973,9.4999945 H 15.500008 v 4.5000085 c 0,2.266494 -2.007008,3.000002 -4.500008,3.000002 H 8.0000055 c -2.493,0 -4.5000082,-0.733508 -4.5000082,-3.000002 z M 17.000005,11 h 1.499998 v 3.000003 h -1.499998 z"
       id="path7"
       style="stroke-width:1.5" />
  </g>
</svg>
