<?xml version="1.0" encoding="UTF-8" standalone="no"?>
<svg
   viewBox="0 0 22 22"
   version="1.1"
   id="svg1"
   sodipodi:docname="clock-out.svg"
   inkscape:version="1.3 (0e150ed6c4, 2023-07-21)"
   xmlns:inkscape="http://www.inkscape.org/namespaces/inkscape"
   xmlns:sodipodi="http://sodipodi.sourceforge.net/DTD/sodipodi-0.dtd"
   xmlns="http://www.w3.org/2000/svg"
   xmlns:svg="http://www.w3.org/2000/svg">
  <sodipodi:namedview
     id="namedview1"
     pagecolor="#ffffff"
     bordercolor="#000000"
     borderopacity="0.25"
     inkscape:showpageshadow="2"
     inkscape:pageopacity="0.0"
     inkscape:pagecheckerboard="0"
     inkscape:deskcolor="#d1d1d1"
     inkscape:zoom="36.5"
     inkscape:cx="11"
     inkscape:cy="11"
     inkscape:window-width="1920"
     inkscape:window-height="1007"
     inkscape:window-x="0"
     inkscape:window-y="0"
     inkscape:window-maximized="1"
     inkscape:current-layer="svg1" />
  <defs
     id="defs3051">
    <style
       type="text/css"
       id="current-color-scheme">&#10;      .ColorScheme-Text {&#10;        color:#232629;&#10;      }&#10;      .ColorScheme-Highlight {&#10;        color:#3daee9;&#10;      }&#10;      </style>
  </defs>
  <path
     style="fill:currentColor;fill-opacity:1;stroke:none;stroke-width:1.1248"
     d="M 6.3599757,2 C 4.4881736,2.9631929 2.9628404,4.4890848 2,6.3615722 V 6.5 L 3.0367297,6.8449707 C 3.885348,5.2138394 5.2126629,3.8860384 6.8431972,3.0371094 L 6.4983528,2 Z m 9.1416713,0 -0.344843,1.0371094 c 1.630529,0.8489362 2.957841,2.176735 3.806466,3.8078613 L 20,6.5 V 6.3615722 C 19.037161,4.4890885 17.511823,2.9631913 15.640024,2 Z m -4.504941,2.25 c -4.3611481,0 -7.8721178,3.5122554 -7.8721178,7.875 0,4.362744 3.5109697,7.875 7.8721178,7.875 4.361147,0 7.872117,-3.512256 7.872117,-7.875 0,-4.3627446 -3.51097,-7.875 -7.872117,-7.875 z m 0,1.125 c 3.738126,0 6.747529,3.0105045 6.747529,6.75 0,3.739495 -3.009403,6.75 -6.747529,6.75 -3.7381271,0 -6.7475296,-3.010505 -6.7475296,-6.75 0,-3.7394955 3.0094025,-6.75 6.7475296,-6.75 z M 7.6229409,8.75 V 15.5 H 14.37047 V 8.75 Z"
     class="ColorScheme-Text"
     id="path1"
     sodipodi:nodetypes="ccccccccccccccssssssssssccccc" />
</svg>
